HIERARCHY
ROOT simHips
{
  OFFSET -196.303 99.7911 397.044
  CHANNELS 6 Xposition Yposition Zposition Zrotation Xrotation Yrotation
  JOINT simSpine
  {
    OFFSET -0.000355721 21.3001 -0.016921
    CHANNELS 3 Zrotation Xrotation Yrotation
    JOINT simLeftArm
    {
      OFFSET 13.5181 21.3012 0
      CHANNELS 3 Zrotation Xrotation Yrotation
      JOINT simLeftForeArm
      {
        OFFSET 24.5783 0 0
        CHANNELS 3 Zrotation Xrotation Yrotation
        JOINT simLeftHand
        {
          OFFSET 24.5783 0 0
          CHANNELS 3 Zrotation Xrotation Yrotation
          End Site
          {
            OFFSET 7.32568 1.52588e-005 0.0169305
          }
        }
      }
    }
    JOINT simHead
    {
      OFFSET 0 27.4458 -0.00489235
      CHANNELS 3 Zrotation Xrotation Yrotation
      End Site
      {
        OFFSET 0 0 0
      }
    }
    JOINT simRightArm
    {
      OFFSET -13.5174 21.3012 0
      CHANNELS 3 Zrotation Xrotation Yrotation
      JOINT simRightForeArm
      {
        OFFSET -24.5783 0 0
        CHANNELS 3 Zrotation Xrotation Yrotation
        JOINT simRightHand
        {
          OFFSET -24.5783 0 0
          CHANNELS 3 Zrotation Xrotation Yrotation
          End Site
          {
            OFFSET -7.32568 1.52588e-005 0.0169305
          }
        }
      }
    }
  }
  JOINT simRightUpLeg
  {
    OFFSET -8.44614 -9.41038 0.835684
    CHANNELS 3 Zrotation Xrotation Yrotation
    JOINT simRightLeg
    {
      OFFSET 0 -40.9639 0
      CHANNELS 3 Zrotation Xrotation Yrotation
      JOINT simRightFoot
      {
        OFFSET 0 -40.9639 0
        CHANNELS 3 Zrotation Xrotation Yrotation
        End Site
        {
          OFFSET 0.50614 -9.67405 14.6709
        }
      }
    }
  }
  JOINT simLeftUpLeg
  {
    OFFSET 8.44614 -9.41038 0.835684
    CHANNELS 3 Zrotation Xrotation Yrotation
    JOINT simLeftLeg
    {
      OFFSET 0 -40.9639 0
      CHANNELS 3 Zrotation Xrotation Yrotation
      JOINT simLeftFoot
      {
        OFFSET 0 -40.9639 0
        CHANNELS 3 Zrotation Xrotation Yrotation
        End Site
        {
          OFFSET -0.50614 -9.67405 14.6709
        }
      }
    }
  }
}
MOTION
Frames:	14
Frame Time:	0.0333333
-196.303 99.7911 397.044 -1.31556e-005 1.43321e-012 -1.27427e-014 4.57475e-009 -0.000210597 0.00124469 9.50146e-007 -7.56974e-006 -6.29526e-008 -3.11164e-012 0.00319189 -2.13861e-012 7.76346e-007 -3.5398e-006 -2.59786e-006 -2.85698e-007 3.78696e-006 -3.59511e-007 0.00147281 -2.2763e-005 7.88799e-006 -9.79586e-008 0.0008692 4.00726e-014 -2.44774e-011 1.37216e-010 -1.18994e-012 0.0688111 0.959104 -0.0560051 -6.04792 8.88495 1.0322 18.4085 -17.4008 13.945 1.8249 1.75488 -0.154016 -0.00619157 7.91289 0.227196 16.5972 -17.235 13.7257 
-196.303 99.7908 397.043 -1.31622e-005 -0.00067756 -0.000555795 4.57475e-009 -0.000210597 0.00124469 -0.000162945 -0.00362513 -0.00344188 -0.00115776 0.00319189 -2.13861e-012 0.00653386 0.00115966 0.00598538 -0.00651905 0.00426639 -0.00028367 0.00147294 -0.00278667 0.00256725 -0.00645725 0.0008692 0.00257508 -0.000218252 0.00423433 0.000901585 0.0688293 0.959104 -0.0570926 -6.04795 8.88675 1.0322 18.4117 -17.4029 13.9452 1.82487 1.75662 -0.158399 -0.00645455 7.91015 0.229185 16.5983 -17.2363 13.7283 
-196.305 99.7824 397.02 0.00732173 -0.0357873 -0.0125458 4.57475e-009 -0.000210597 0.00124469 -0.0168675 0.044111 -0.0423349 0.0100796 0.00319189 -2.13861e-012 -0.110367 -0.0331451 0.0297416 -0.104369 0.181567 -0.00925008 -0.00316743 0.144414 0.115719 -0.0503429 0.0008692 0.0594204 0.0133336 -0.0367534 -0.107693 0.0683978 0.959104 -0.0313176 -6.05593 8.93024 1.03232 18.4005 -17.4294 13.9472 1.81638 1.77195 -0.198387 -0.0106816 7.93327 0.259147 16.6077 -17.2482 13.7523 
-196.306 99.7803 396.999 0.0146576 -0.0640576 0.00231938 4.57475e-009 -0.000210597 0.00124469 -0.0346758 0.134736 -0.114833 -0.0439237 0.00319189 -2.1386e-012 -0.257276 -0.124198 0.0504782 -0.20742 0.324504 -0.0245326 -0.0857442 0.106623 0.199777 -0.00889328 0.000869198 0.135485 0.0530455 0.0665849 -0.163382 0.0686166 0.961179 -0.0442919 -6.07154 8.96438 1.03242 18.4079 -17.4434 13.9483 1.8141 1.76177 -0.185807 -0.00791306 7.98573 0.237528 16.6239 -17.2742 13.7427 
-196.3 99.7788 396.986 0.019162 -0.0898677 0.0203516 4.57475e-009 -0.000210597 0.00124469 -0.0937225 -0.100428 -0.139189 -0.03007 0.00319189 -2.13858e-012 -0.0695722 -0.168587 0.0402343 -0.325074 0.399972 -0.0884141 -0.110067 0.128498 0.271583 0.0399527 0.000869199 0.107335 -0.460418 0.0917767 -0.0443199 0.0690382 0.969983 -0.0687927 -6.09441 8.98228 1.03247 18.4341 -17.4463 13.9485 1.80298 1.76728 -0.147921 -0.00453669 8.00486 0.212719 16.6121 -17.2671 13.7224 
-196.298 99.7774 396.975 0.0250397 -0.125019 0.0446702 4.57475e-009 -0.000210597 0.00124469 -0.123919 -0.0347675 -0.154184 -0.0273363 0.00319189 -2.13861e-012 -0.0758519 -0.165052 0.0413206 -0.366244 0.421145 -0.231231 -0.118066 0.32999 0.309446 -0.0106268 0.000869196 0.185499 -0.276257 0.0723919 -0.177094 0.0707833 1.0005 -0.0989257 -6.0993 8.98892 1.03249 18.4478 -17.4428 13.9483 1.80901 1.79926 -0.132115 0.00162501 8.00117 0.16855 16.6094 -17.2924 13.6975 
-196.288 99.7754 396.964 0.0264967 -0.131387 0.0667369 4.57475e-009 -0.000210597 0.00124469 -0.145345 0.000549721 -0.175527 -0.0661596 0.00319189 -2.13864e-012 -0.276781 -0.0480265 0.0123297 -0.378336 0.426114 -0.44368 -0.199483 0.258778 0.356896 0.0561016 0.000869195 0.202208 0.103325 0.194274 -0.333446 0.0575143 0.988785 -0.125071 -6.10186 9.01411 1.04015 18.4582 -17.4478 13.9533 1.78769 1.7781 -0.15618 -0.000888373 8.03728 0.185773 16.6583 -17.2912 13.711 
-196.281 99.7741 396.957 0.026937 -0.169177 0.090642 4.57475e-009 -0.000210597 0.00124469 -0.161666 -0.0360021 -0.190264 -0.111838 0.00319189 -2.13862e-012 -0.348762 0.428654 0.105502 -0.40693 0.419728 -0.642448 -0.207796 0.259106 0.433699 0.141921 0.000869199 0.104007 -0.374234 0.370643 -0.480396 0.061288 1.02752 -0.116385 -6.12012 9.02402 1.01312 18.4285 -17.474 13.9365 1.7824 1.79939 -0.161019 0.00260527 8.0651 0.160235 16.6176 -17.3163 13.6973 
-196.275 99.7721 396.955 0.0285265 -0.18347 0.108765 4.57475e-009 -0.000210597 0.00124469 -0.197094 0.0507697 -0.259772 -0.11156 0.00319189 -2.13862e-012 -0.355177 0.64005 0.10735 -0.392717 0.478288 -0.755253 -0.184404 0.368883 0.459864 0.0845718 0.000582286 0.0588577 -0.5941 0.0684316 -0.512459 0.0591351 1.02824 -0.123197 -6.12261 9.05067 1.014 18.4514 -17.4896 13.9404 1.77779 1.81282 -0.144539 0.0100491 8.06069 0.146296 16.621 -17.3502 13.6986 
-196.271 99.7709 396.954 0.0365972 -0.192855 0.130582 4.57475e-009 -0.000210597 0.00124469 -0.205757 -0.0811773 -0.238581 -0.130505 0.00271352 -2.13864e-012 -0.582527 0.640377 0.132535 -0.361651 0.47631 -0.795162 -0.267839 0.194913 0.451267 0.127641 0.00152719 0.149548 0.00831999 0.22167 -0.469519 0.0538825 1.03435 -0.153775 -6.13849 9.05759 1.02422 18.4711 -17.4831 13.9439 1.76036 1.78875 -0.15131 0.0233564 8.11362 0.146375 16.6546 -17.343 13.6976 
-196.272 99.7703 396.949 0.0516674 -0.224932 0.145039 4.57475e-009 -0.000210597 0.00124469 -0.238339 -0.067177 -0.25782 -0.18061 0.00200482 -2.13865e-012 -0.578699 0.953583 0.0781828 -0.371662 0.465591 -0.793087 -0.292849 0.350742 0.514218 0.279832 0.00311706 0.149087 -0.3308 0.238858 -0.367339 0.0396341 1.06205 -0.177861 -6.14349 9.07749 1.03455 18.4627 -17.503 13.9551 1.74468 1.8287 -0.150756 0.0198711 8.0993 0.15205 16.6201 -17.3251 13.6947 
-196.27 99.769 396.95 0.0371018 -0.225872 0.158662 4.57475e-009 -0.000210597 0.00124469 -0.274102 0.00573399 -0.287765 -0.217325 0.00110897 -2.13858e-012 -0.337874 1.25512 0.133743 -0.336316 0.502075 -0.794286 -0.240328 0.380069 0.620972 0.244784 0.0048246 0.00628026 -0.8825 0.0273133 -0.301623 0.0700323 1.04862 -0.19516 -6.1706 9.10521 1.04794 18.4824 -17.4929 13.9576 1.76918 1.85277 -0.147303 0.0129995 8.05613 0.119669 16.6368 -17.3232 13.6721 
-196.274 99.7679 396.952 0.0424998 -0.217444 0.196732 -0.00364731 -0.000210597 0.00124469 -0.304118 -0.164238 -0.28394 -0.210841 6.91753e-005 -2.1386e-012 -0.294327 1.15229 0.0471443 -0.351714 0.514104 -0.850642 -0.281815 0.166424 0.595077 0.220536 0.00612249 0.11842 -0.653607 0.0690215 -0.279239 0.0736835 1.04374 -0.247895 -6.18205 9.10107 1.04943 18.4659 -17.4923 13.9556 1.7686 1.81843 -0.142481 0.0202717 8.09432 0.0883814 16.5909 -17.3347 13.6496 
-196.281 99.767 396.951 0.0418426 -0.234094 0.235651 -0.010046 -0.000210597 0.00124469 -0.30178 -0.106133 -0.275147 -0.222887 -0.00107139 -2.13861e-012 -0.420093 1.39845 0.0450422 -0.350863 0.465868 -0.906849 -0.288213 0.262103 0.609343 0.303724 0.00648345 0.115971 -0.782187 0.276723 -0.0120789 0.0862241 1.06972 -0.27809 -6.19147 9.0974 1.03636 18.4467 -17.4932 13.9442 1.76947 1.83064 -0.118198 0.0385455 8.10144 0.0520389 16.5505 -17.3507 13.6275 
